<svg width="256" height="256" viewBox="0 0 256 256" fill="none" xmlns="http://www.w3.org/2000/svg">
<g clip-path="url(#clip0_1150_8286)">
<path d="M127.969 256C161.916 256 194.474 242.514 218.478 218.51C242.483 194.505 255.969 161.948 255.969 128C255.969 94.0523 242.483 61.495 218.478 37.4903C194.474 13.4857 161.917 -8.22231e-06 127.969 -1.11901e-05L127.969 128L127.969 256Z" fill="#E4EFFA"/>
<path d="M147.949 20.8177L43.7407 57.7822L89.0579 185.24L193.266 148.275L147.949 20.8177Z" fill="#AB1F08"/>
<path d="M44.3022 59.3533L148.511 22.3887L151.901 31.9246C155.308 41.5075 151.576 51.5928 143.573 54.4318L68.3677 81.1084C60.3642 83.9474 51.0999 78.472 47.6927 68.8892L44.3022 59.3533Z" fill="#730102"/>
<path d="M43.7407 57.7832L147.949 20.8186L150.789 28.8057C153.643 36.8321 149.461 45.6537 141.458 48.4927L66.2528 75.1694C58.2493 78.0083 49.4343 73.7967 46.5805 65.7703L43.7407 57.7832Z" fill="#E42612"/>
<rect x="102.124" y="53.429" width="105.769" height="131.566" transform="rotate(8.77598 102.124 53.429)" fill="white"/>
<rect x="141.41" y="73.7705" width="51.6938" height="12.079" rx="1" transform="rotate(8.77598 141.41 73.7705)" fill="#E4EFFA"/>
<rect x="137.487" y="100.176" width="51.6938" height="12.079" rx="1" transform="rotate(8.77598 137.487 100.176)" fill="#E4EFFA"/>
<rect x="111.106" y="69.5676" width="14.2837" height="12.079" rx="1" transform="rotate(8.77598 111.106 69.5676)" fill="#A8C3DD"/>
<rect x="107.179" y="95.9707" width="14.2837" height="12.079" rx="1" transform="rotate(8.77598 107.179 95.9707)" fill="#A8C3DD"/>
<path d="M127.329 131.129L159.112 115.444L150.165 90.066L103.295 90.066L95.0886 115.444L127.329 131.129Z" stroke="#846357" stroke-width="3" stroke-linejoin="round"/>
<rect width="163.807" height="112.408" transform="matrix(1.00001 -3.73653e-09 0.0100287 0.999937 44.6748 110.599)" fill="#B98063"/>
<path fill-rule="evenodd" clip-rule="evenodd" d="M208.541 116.221L189.203 184.279C188.262 187.592 185.301 189.912 181.858 190.035L78.8786 193.713C75.4351 193.836 72.284 191.734 71.0604 188.499L44.7598 118.949L44.676 110.6L208.484 110.6L208.541 116.221Z" fill="#846357"/>
<path fill-rule="evenodd" clip-rule="evenodd" d="M208.036 110.599L186.138 178.367C185.079 181.644 182.037 183.857 178.592 183.857L75.5469 183.857C72.1012 183.857 69.0271 181.644 67.9198 178.367L45.0226 110.599L208.036 110.599Z" fill="#CD9A83"/>
<rect x="82.3511" y="173.558" width="12.979" height="21.7088" rx="1" fill="#5F453B"/>
<rect x="159.349" y="173.558" width="12.979" height="21.7088" rx="1" fill="#5F453B"/>
</g>
<defs>
<clipPath id="clip0_1150_8286">
<rect width="256" height="256" fill="white"/>
</clipPath>
</defs>
</svg>
