<svg width="256" height="256" viewBox="0 0 256 256" fill="none" xmlns="http://www.w3.org/2000/svg">
<g clip-path="url(#clip0_1162_8421)">
<path d="M256.203 128C256.203 161.948 242.717 194.505 218.713 218.51C194.708 242.514 162.151 256 128.203 256C94.2554 256 61.6981 242.514 37.6935 218.51C13.6888 194.505 0.203148 161.948 0.203136 128L128.203 128L256.203 128Z" fill="#E4EFFA"/>
<path d="M226.203 191.01L226.441 169.418C202.649 183.526 151.942 212.408 148.382 214.481C143.932 217.072 139.995 224.081 141.021 232.373C142.048 234.043 144.958 236.899 148.381 234.965L226.203 191.01Z" fill="white"/>
<path d="M151.795 237.353C159.389 232.572 208.402 204.421 231.959 190.944L225.984 187.076V190.944C202.047 204.304 153.206 231.659 149.334 234.19C145.461 236.721 142.329 234.374 141.248 232.885C141.413 235.257 142.034 237.544 143.526 238.711C143.851 238.894 144.174 239.075 144.493 239.255C146.107 239.863 148.449 239.46 151.795 237.353Z" fill="#50769A"/>
<path d="M141.248 229.969C141.599 224.344 143.005 218.015 149.334 214.499C154.397 211.687 206.527 181.215 231.959 166.331L114.878 100.584C93.5478 112.656 48.1457 138.416 37.176 144.885C23.4639 152.972 21.7076 168.442 27.6847 172.661C32.425 176.007 106.256 217.733 143.526 238.711C142.034 237.544 141.413 235.257 141.248 232.885C141.179 231.903 141.189 230.907 141.248 229.969Z" fill="#244A6C"/>
<path d="M226.201 160.609L226.439 139.017C202.647 153.125 151.941 182.006 148.38 184.079C143.93 186.671 139.993 193.68 141.019 201.972C142.046 203.642 144.956 206.498 148.379 204.563L226.201 160.609Z" fill="white"/>
<path d="M151.793 206.952C159.387 202.171 208.4 174.02 231.957 160.542L225.982 156.675V160.542C202.045 173.903 153.204 201.257 149.332 203.788C145.459 206.319 142.328 203.973 141.246 202.483C141.411 204.856 142.033 207.143 143.524 208.31C143.849 208.493 144.172 208.674 144.491 208.854C146.105 209.462 148.447 209.059 151.793 206.952Z" fill="#F29D8B"/>
<path d="M141.246 199.568C141.597 193.943 143.003 187.614 149.332 184.098C154.395 181.285 206.525 150.814 231.957 135.93L114.876 70.1831C93.5459 82.2546 48.1437 108.015 37.1741 114.484C23.462 122.571 21.7057 138.041 27.6827 142.26C32.423 145.606 106.254 187.331 143.524 208.31C142.033 207.143 141.411 204.856 141.246 202.483C141.177 201.502 141.187 200.506 141.246 199.568Z" fill="#C21B17"/>
<path d="M170.707 177.404L153.287 187.187L168.947 195.366L171.842 186.723L185.845 185.743L170.707 177.404Z" fill="#B98063"/>
<path d="M160.259 142.883C146.803 149.891 118.209 164.747 111.481 168.112C103.071 172.317 102.651 185.353 108.538 188.717L42.0984 150.872C39.8551 147.228 36.0416 138.257 38.7335 131.529C41.4254 124.801 53.5924 109.102 59.3394 102.094L115.686 74.7612L160.259 142.883Z" fill="#960002"/>
<path d="M75.7109 82.9136H178.271V127.304C164.494 156.083 94.3858 160.063 75.7109 127.304V82.9136Z" fill="#213E47"/>
<path d="M24.4316 75.7901L126.797 16.4922L231.039 75.7901L126.797 136.338L24.4316 75.7901Z" fill="#385B66"/>
<path d="M126.797 63.3062L61.8799 98.2608V142.579" stroke="#C7B5AF" stroke-width="2" stroke-linecap="round"/>
<path d="M46.6473 153.23C35.6838 164.07 42.0791 178.127 46.6473 183.366L108.594 219.135C98.4732 213.291 98.1787 195.31 108.594 188.807L46.6473 153.23Z" fill="#213E47"/>
</g>
<defs>
<clipPath id="clip0_1162_8421">
<rect width="256" height="256" fill="white"/>
</clipPath>
</defs>
</svg>
