<svg width="256" height="256" viewBox="0 0 256 256" fill="none" xmlns="http://www.w3.org/2000/svg">
<g clip-path="url(#clip0_1162_9906)">
<circle cx="128.203" cy="128" r="128" transform="rotate(-180 128.203 128)" fill="#E4EFFA"/>
<rect x="-22.0312" y="151.672" width="307.414" height="21.2969" transform="rotate(-22.8145 -22.0312 151.672)" fill="white"/>
<path fill-rule="evenodd" clip-rule="evenodd" d="M204.255 106.522C216.363 111.845 230.494 106.344 235.817 94.236C241.14 82.1277 235.64 67.9967 223.532 62.6735C223.373 62.6037 223.213 62.5357 223.054 62.4695L223.056 62.4645L201.607 53.0352L191.969 74.9593L182.331 96.8834L203.779 106.313L203.781 106.308C203.938 106.381 204.096 106.452 204.255 106.522Z" fill="#A8C3DD"/>
<circle cx="196.16" cy="76.9844" r="23.9492" fill="#C21B17"/>
<mask id="mask0_1162_9906" style="mask-type:alpha" maskUnits="userSpaceOnUse" x="172" y="53" width="49" height="48">
<circle cx="196.16" cy="76.9844" r="23.9492" fill="#E13632"/>
</mask>
<g mask="url(#mask0_1162_9906)">
<circle cx="190.15" cy="69.3717" r="17.9386" fill="#E13632"/>
<path d="M188.084 100.933C166.313 82.6065 171.67 70.3888 177.069 66.5707C181.497 63.2016 190.576 61.8163 198.776 80.0461C208.172 100.933 225.019 83.4153 220.483 70.9502" stroke="white" stroke-width="1.3"/>
</g>
<circle cx="101.012" cy="101.009" r="54.4607" transform="rotate(23.7315 101.012 101.009)" fill="#A8C3DD"/>
<path d="M102.057 93.4567C118.296 89.2761 129.7 83.4175 136.156 76.0232C136.07 75.1416 135.957 74.2883 135.814 73.4066C121.395 92.0061 78.3946 96.0162 70.9718 96.585C71.5406 85.2376 73.1618 76.1652 73.6169 73.7194C76.3471 72.2974 105.042 57.8788 131.008 57.9356C130.695 57.2815 130.382 56.6557 130.041 56.0301C126.202 56.0869 122.306 56.4284 118.466 56.9688C117.841 55.3762 115.082 48.835 110.048 42.0095C105.583 35.9803 100.606 31.4866 95.3163 28.6427C91.5623 27.6757 87.6661 27.107 83.6562 26.9648V27.0787C103.621 28.6429 114.627 52.7312 116.532 57.2531C109.422 58.4191 102.54 60.2962 96.3686 62.3154C95.2026 60.7228 88.633 51.9632 79.9873 44.3414C71.9958 37.2884 64.5161 33.25 57.8612 32.3115C56.7521 32.8519 55.6998 33.4206 54.6191 34.0178C71.6544 33.705 90.9933 58.3623 94.4345 62.941C83.4 66.6951 75.0955 70.7904 73.0194 71.8427C57.8895 63.1686 41.0535 50.257 40.9113 50.1432C40.2288 49.5744 39.2903 48.778 38.4371 47.9533C38.0389 48.4652 37.6407 48.9772 37.271 49.4892C38.4085 50.5699 39.4892 51.4515 39.7167 51.6221C39.7167 51.6221 40.0297 51.8496 40.5416 52.2477C38.238 54.9779 29.4784 66.439 26.8335 83.8156C26.9473 87.0009 27.3455 90.1578 27.9996 93.1724C28.1987 70.9041 39.717 56.1724 42.0774 53.3854C44.5801 55.2624 48.9029 58.4189 54.0789 61.9738C51.6331 67.0077 36.1618 100.794 50.4385 126.816C51.6045 127.613 52.8275 128.381 54.0504 129.12C44.4947 114.9 45.4901 97.5803 48.0212 85.5219C50.3533 74.4589 54.3631 65.7279 55.6428 63.0546C60.6482 66.4673 66.2794 70.1363 71.7398 73.2646C70.8013 78.1847 65.4832 108.416 72.1949 131.537C71.228 132.106 68.7822 133.244 64.4025 133.784C65.7676 134.239 67.1326 134.637 68.5545 134.978C70.8013 134.41 72.2516 133.727 73.0763 133.244C73.6736 133.983 74.7261 135.092 76.4893 136.287C77.9682 136.429 79.4469 136.486 80.9542 136.514C76.347 134.438 74.4984 131.964 74.214 131.537C73.1902 128.153 72.4509 124.57 71.9106 120.958C74.4986 121.413 80.926 122.351 89.0028 122.351C100.805 122.351 116.049 120.304 127.51 111.687C128.591 110.009 129.615 108.274 130.525 106.51C111.698 125.565 76.3469 119.849 71.6544 118.967C70.7727 111.999 70.659 104.889 70.9149 98.4052C74.4983 98.1492 87.922 96.9831 102.085 93.3428L102.057 93.4567Z" fill="#385B66"/>
<path d="M49.8396 121.015C50.9203 123.773 52.3138 126.447 54.0486 129.035C52.8257 128.324 51.6027 127.556 50.4367 126.76C50.4367 126.76 50.4367 126.703 50.4082 126.703C49.1284 124.371 48.1047 121.982 47.2515 119.536C48.1047 120.048 48.9579 120.56 49.8396 121.015Z" fill="#385B66"/>
<path d="M80.9529 136.453C79.4456 136.425 77.9669 136.368 76.4881 136.226C74.7532 135.031 73.6724 133.894 73.1036 133.183C72.2788 133.638 70.8001 134.32 68.5818 134.889C67.1598 134.548 65.7948 134.15 64.4297 133.723C68.8094 133.183 71.2267 132.045 72.2221 131.476C71.8524 130.168 71.5112 128.86 71.1983 127.495C71.8524 127.552 72.5064 127.609 73.189 127.637C73.5018 128.945 73.843 130.225 74.2128 131.476C74.4971 131.903 76.3457 134.377 80.9529 136.453Z" fill="#385B66"/>
<path d="M107.402 118.455C115.792 116.549 124.096 112.937 130.524 106.453C129.614 108.245 128.618 109.98 127.509 111.629C120.115 117.175 111.184 120.019 102.596 121.299C104.245 120.446 105.866 119.479 107.402 118.455Z" fill="#385B66"/>
<path d="M130.466 56.7393C130.665 57.0805 130.835 57.4218 131.006 57.7915H130.75C130.665 57.4218 130.58 57.0805 130.466 56.7393Z" fill="#CBDBEF"/>
<path d="M136.155 75.849C134.903 77.271 133.481 78.6362 131.889 79.9445C132.059 79.006 132.173 78.039 132.258 77.072C133.567 75.8776 134.761 74.5979 135.813 73.2612C135.956 74.1144 136.069 74.9958 136.155 75.849Z" fill="#385B66"/>
<path d="M73.0475 71.8996C75.1521 70.8473 83.4281 66.752 94.4627 62.998C91.0215 58.4192 71.6825 33.7904 54.6472 34.0747C48.3905 37.6297 42.8734 42.3792 38.4652 48.0102C39.3184 48.8065 40.2285 49.6313 40.9394 50.2001C41.0816 50.3139 57.9461 63.2255 73.0475 71.8996ZM96.3682 62.372C102.54 60.3528 109.45 58.5045 116.532 57.31C114.655 52.7881 103.649 28.6995 83.6558 27.1353V27.0218C83.0017 27.0218 82.3189 26.9648 81.6364 26.9648C73.1329 26.9648 65.0561 28.8988 57.8609 32.3684C64.5158 33.3069 71.9955 37.3453 79.987 44.3983C88.6326 52.0202 95.2022 60.7794 96.3682 62.372ZM39.7449 51.7072C39.5173 51.5081 38.4367 50.6265 37.2991 49.5742C30.7011 58.618 26.8047 69.7666 26.8047 81.825C26.8047 82.536 26.8047 83.2185 26.8616 83.9295C29.5065 66.5529 38.2661 55.0918 40.5697 52.3616C40.0578 51.9634 39.7733 51.7641 39.7449 51.7356V51.7072ZM71 96.585C78.4227 96.0162 121.424 92.0061 135.842 73.4066C135.018 67.9462 133.368 62.7419 131.036 57.9356C105.099 57.8788 76.4037 72.2974 73.645 73.7194C73.19 76.1368 71.5688 85.2091 71 96.585ZM110.076 42.038C115.11 48.8635 117.869 55.4043 118.494 56.9969C122.334 56.4281 126.23 56.087 130.069 56.0585C122.931 42.6635 110.389 32.5674 95.3445 28.6996C100.663 31.5436 105.639 36.0085 110.076 42.0661V42.038ZM73.1329 133.329C72.3082 133.813 70.8579 134.495 68.6111 135.064C71.1992 135.69 73.8442 136.145 76.5459 136.4C74.8111 135.206 73.7302 134.069 73.1329 133.358V133.329ZM54.107 62.0592C48.931 58.5043 44.6079 55.319 42.1052 53.4704C39.7447 56.2575 28.2268 71.0176 28.0277 93.2574C30.9855 107.136 39.1761 119.081 50.4667 126.902C36.1615 100.879 51.6328 67.0931 54.107 62.0592ZM136.184 76.0232C129.728 83.4175 118.324 89.2761 102.085 93.4567C87.9501 97.097 74.498 98.2631 70.9146 98.519C70.6586 105.003 70.8008 112.113 71.654 119.081C76.375 119.962 111.697 125.679 130.524 106.624C134.307 99.1731 136.468 90.755 136.468 81.825C136.468 79.8627 136.354 77.9287 136.155 76.0517L136.184 76.0232ZM71.9387 121.071C72.4791 124.683 73.2183 128.267 74.2421 131.651C74.5265 132.078 76.3751 134.552 80.9823 136.628C81.2098 136.628 81.4373 136.628 81.6364 136.628C100.833 136.628 117.726 126.731 127.538 111.8C116.077 120.417 100.833 122.465 89.0306 122.465C80.9538 122.465 74.5267 121.526 71.9387 121.071ZM71.7679 73.3782C66.3359 70.2498 60.6764 66.5812 55.671 63.1684C54.3912 65.8133 50.3814 74.5728 48.0494 85.6358C45.5182 97.6942 44.5228 115.014 54.0785 129.234C57.3491 131.139 60.8188 132.703 64.4591 133.898C68.8388 133.357 71.2561 132.22 72.2515 131.651C65.5113 108.53 70.8579 78.2982 71.7964 73.3782H71.7679Z" fill="white"/>
<g style="mix-blend-mode:multiply">
<path d="M71.1982 127.5C63.5195 126.789 56.2958 124.514 49.84 121.016C50.9207 123.774 52.3142 126.448 54.049 129.036C57.3196 130.941 60.7893 132.506 64.4295 133.728C68.8092 133.188 71.2266 132.05 72.222 131.482C71.8522 130.173 71.511 128.865 71.1982 127.5ZM102.595 121.3C94.8028 125.424 85.9299 127.756 76.4879 127.756C75.3788 127.756 74.2695 127.728 73.1888 127.642C73.5016 128.951 73.8429 130.23 74.2126 131.482C74.497 131.908 76.3456 134.382 80.9528 136.459C81.1803 136.459 81.4078 136.487 81.6068 136.487C100.832 136.487 117.725 126.59 127.508 111.631C120.114 117.177 111.184 120.021 102.595 121.3ZM136.154 75.8535C134.903 77.2755 133.481 78.6408 131.888 79.949C129.556 96.0174 120.37 109.868 107.402 118.456C115.791 116.551 124.096 112.939 130.523 106.455C134.306 99.0034 136.467 90.5854 136.467 81.6553C136.467 79.693 136.353 77.759 136.154 75.8535ZM47.2519 119.537C41.8484 116.21 37.0421 112.001 33.0605 107.081C37.1559 114.958 43.1565 121.698 50.4086 126.704C49.1289 124.372 48.1051 121.983 47.2519 119.537ZM73.1034 133.188C72.2787 133.643 70.7999 134.325 68.5816 134.894C71.1412 135.52 73.7861 135.975 76.4879 136.231C74.7531 135.037 73.6722 133.899 73.1034 133.188ZM131.006 57.7944H130.751C131.917 62.231 132.514 66.9236 132.514 71.7299C132.514 73.5501 132.429 75.3133 132.258 77.0766C133.566 75.8821 134.761 74.6024 135.813 73.2658C134.988 67.8054 133.338 62.6007 131.006 57.7944Z" fill="#BFD6EF"/>
</g>
<path d="M211.186 150.753C217.671 157.237 220.101 201.57 194.256 227.42C168.412 253.264 125.004 251.765 117.589 244.35C110.174 236.935 108.182 194.02 134.519 167.683C160.856 141.346 204.697 144.269 211.186 150.753Z" fill="#A8C3DD"/>
<path d="M190.808 140.622C197.292 147.106 199.722 191.439 173.878 217.289C148.034 243.134 104.626 241.634 97.2107 234.219C89.7957 226.804 87.8039 183.889 114.141 157.552C140.478 131.215 184.319 134.138 190.808 140.622Z" fill="#B98063"/>
<path d="M167.874 190.196C165.606 193.703 161.162 199.478 158.31 202.509C154.11 206.975 148.816 212.993 143.003 215.364C142.495 222.027 140.119 228.37 135.61 233.669C134.257 235.26 132.79 236.651 131.237 237.842C145.612 235.569 161.698 229.463 173.876 217.28C199.72 191.436 197.29 147.102 190.806 140.618C187.461 137.273 174.157 134.876 158.451 136.959C179.451 138.994 181.421 169.228 167.868 190.196L167.874 190.196Z" fill="#846357"/>
<path d="M180.471 150.957C176.358 146.843 167.638 141.512 157.273 137.074C162.772 136.262 167.99 136.018 172.629 136.219C178.55 139.407 183.307 142.67 186.035 145.398C188.741 148.104 191.956 152.819 195.09 158.691C195.274 163.335 195.014 168.563 194.208 174.068C189.824 163.736 184.568 155.049 180.477 150.957L180.471 150.957Z" fill="white"/>
<path fill-rule="evenodd" clip-rule="evenodd" d="M171.627 144.39C175.426 146.705 178.485 148.975 180.47 150.961L180.476 150.961C184.554 155.039 189.789 163.682 194.164 173.97C194.956 168.504 195.215 163.301 195.08 158.678C191.949 152.814 188.738 148.106 186.034 145.402C183.308 142.675 178.553 139.413 172.635 136.226C168.325 136.085 163.513 136.291 158.452 136.963C164.288 137.528 168.655 140.272 171.627 144.39Z" fill="#EDE9E8"/>
<path d="M158.375 201.78C134.149 226.006 104.175 235.91 97.0898 234.065C97.1331 234.108 97.171 234.168 97.2143 234.211C101.068 238.065 133.689 228.782 159.533 202.938C185.378 177.093 194.178 143.991 190.806 140.619C190.741 140.554 190.649 140.495 190.579 140.43C192.073 147.217 182.574 177.575 158.375 201.78Z" fill="#213E47"/>
<path d="M122.069 165.772C97.973 190.122 93.1884 224.93 97.2802 234.125C97.2152 234.061 97.1286 234.001 97.0637 233.936C91.2832 228.269 94.6173 190.047 120.332 164.067C146.041 138.087 185.119 134.905 190.174 139.857C190.271 139.954 190.369 140.079 190.466 140.182C181.617 136.756 146.144 141.443 122.069 165.766L122.069 165.772Z" fill="#213E47"/>
<path d="M146.946 145.861C146.887 145.856 146.833 145.834 146.773 145.823C119.792 153.379 107.522 176.707 103.176 187.483C103.116 187.634 103.106 187.797 103.154 187.959C103.511 189.215 103.928 190.46 104.475 191.634C104.751 192.224 105.606 192.176 105.823 191.564C108.81 183.099 120.696 155.604 150.811 148.86C151.444 148.719 151.596 147.902 151.065 147.534C149.815 146.662 148.418 146.051 146.941 145.867L146.946 145.861Z" fill="#B8BFC1"/>
<path d="M176 138.125C172.39 138.439 168.293 139.088 163.903 140.149C164.742 140.566 165.565 140.988 166.366 141.41C170.642 140.382 174.625 139.738 178.138 139.429C177.451 138.996 176.736 138.563 176 138.13L176 138.125Z" fill="#213E47"/>
<path d="M190.359 150.825C189.714 153.607 188.713 156.839 187.349 160.395C187.068 159.918 186.786 159.453 186.51 158.998C187.863 155.518 188.859 152.352 189.52 149.618C189.796 150.003 190.077 150.409 190.359 150.82L190.359 150.825Z" fill="#213E47"/>
<path d="M121.075 162.626C127.927 155.779 137.134 149.874 148.441 146.216C147.954 146.059 147.456 145.923 146.941 145.864C146.882 145.858 146.828 145.837 146.768 145.826C119.787 153.382 107.517 176.709 103.171 187.486C103.111 187.637 103.101 187.799 103.149 187.962C103.285 188.438 103.436 188.904 103.593 189.375C106.473 182.755 111.728 171.974 121.07 162.637L121.075 162.626Z" fill="#213E47"/>
<path d="M111.201 190.603C110.801 191.003 110.232 191.225 109.626 191.171C107.055 190.928 105.237 188.638 104.263 187.404C103.007 185.824 102.043 183.951 101.394 181.846C101.075 180.812 101.654 179.708 102.693 179.388C103.732 179.069 104.831 179.653 105.15 180.687C105.654 182.322 106.39 183.762 107.342 184.958C107.867 185.618 109.096 187.166 109.994 187.253C111.077 187.355 111.867 188.313 111.77 189.396C111.726 189.872 111.515 190.289 111.201 190.603Z" fill="white"/>
<path d="M115.857 184.641C115.613 184.884 115.299 185.068 114.947 185.16C113.61 185.507 112.49 185.041 111.765 184.662C109.248 183.352 107.5 181.263 105.784 179.06C105.21 178.324 104.344 177.209 104.242 175.629C104.171 174.546 104.994 173.61 106.076 173.54C107.159 173.469 108.095 174.292 108.166 175.374C108.187 175.721 108.49 176.138 108.891 176.646C110.385 178.562 111.765 180.229 113.589 181.177C113.892 181.334 113.995 181.344 114.016 181.35C115.066 181.079 116.116 181.712 116.392 182.768C116.571 183.461 116.349 184.17 115.873 184.646L115.857 184.641Z" fill="white"/>
<path d="M119.657 178.86C119.111 179.406 118.277 179.601 117.519 179.287C113.509 177.636 110.153 174.638 108.075 170.844C107.555 169.891 107.907 168.701 108.854 168.176C109.807 167.656 111.003 168.002 111.522 168.955C113.168 171.964 115.831 174.346 119.013 175.65C120.015 176.061 120.496 177.209 120.085 178.216C119.982 178.465 119.836 178.681 119.657 178.86Z" fill="white"/>
<path d="M124.516 173.667C123.948 174.235 123.066 174.419 122.292 174.057C118.817 172.433 115.786 169.96 113.524 166.902C113.177 166.436 112.268 165.202 112.679 163.573C112.945 162.523 114.016 161.884 115.072 162.155C116.057 162.404 116.674 163.356 116.533 164.341C116.56 164.39 116.609 164.461 116.685 164.563C118.557 167.096 121.074 169.148 123.959 170.495C124.944 170.955 125.366 172.125 124.906 173.11C124.809 173.321 124.673 173.51 124.516 173.667Z" fill="white"/>
<path d="M149.272 153.796C148.942 154.126 148.492 154.342 147.989 154.37C146.907 154.429 145.981 153.596 145.922 152.513C145.873 151.609 144.374 150.321 143.735 149.774C142.577 148.779 141.169 147.983 139.557 147.415C138.534 147.052 137.992 145.932 138.355 144.909C138.718 143.886 139.838 143.35 140.861 143.707C142.939 144.438 144.769 145.477 146.3 146.792C147.491 147.815 149.71 149.726 149.846 152.302C149.878 152.881 149.656 153.417 149.272 153.801L149.272 153.796Z" fill="white"/>
<path d="M143.135 158.205C142.642 158.698 141.895 158.914 141.181 158.698C140.142 158.384 139.552 157.291 139.86 156.251C139.86 156.268 139.849 156.176 139.698 155.856C138.821 154 137.214 152.549 135.357 150.985C134.865 150.568 134.459 150.249 134.118 150.211C133.035 150.098 132.256 149.129 132.369 148.046C132.483 146.969 133.452 146.184 134.534 146.298C136.109 146.466 137.186 147.375 137.901 147.981C140.033 149.784 142.047 151.613 143.259 154.184C143.606 154.925 144.022 156.062 143.627 157.383C143.53 157.702 143.357 157.983 143.135 158.205Z" fill="white"/>
<path d="M137.198 161.775C137.003 161.97 136.76 162.132 136.484 162.23C135.466 162.603 134.335 162.078 133.962 161.055C132.765 157.775 130.557 155.096 127.575 153.305C126.644 152.747 126.341 151.54 126.904 150.609C127.461 149.678 128.668 149.375 129.599 149.938C133.307 152.168 136.17 155.637 137.658 159.713C137.929 160.455 137.723 161.256 137.198 161.775Z" fill="white"/>
<path d="M131.814 166.429C131.641 166.603 131.43 166.749 131.186 166.851C130.185 167.274 129.032 166.803 128.61 165.801C127.381 162.868 125.433 160.27 122.976 158.294C122.878 158.213 122.808 158.165 122.759 158.132C121.774 158.235 120.843 157.58 120.632 156.584C120.405 155.523 121.087 154.479 122.148 154.251C123.798 153.9 125.032 154.901 125.438 155.231C128.399 157.612 130.748 160.741 132.231 164.275C132.55 165.033 132.355 165.877 131.809 166.429L131.814 166.429Z" fill="white"/>
<path d="M128.181 169.233C128.127 169.287 128.068 169.341 128.008 169.39C127.159 170.061 125.919 169.915 125.248 169.065C124.171 167.701 122.753 166.548 121.145 165.287C120.902 165.098 120.62 164.898 120.333 164.692C118.894 163.664 117.102 162.386 116.55 160.324C116.274 159.274 116.891 158.202 117.947 157.921C118.997 157.64 120.074 158.267 120.35 159.317C120.534 160.01 121.735 160.865 122.612 161.493C122.953 161.737 123.278 161.969 123.57 162.197C125.383 163.615 126.991 164.93 128.333 166.635C128.955 167.425 128.874 168.546 128.181 169.238L128.181 169.233Z" fill="white"/>
<path d="M105.153 180.697C104.882 179.825 104.065 179.284 103.193 179.322C103.41 179.43 103.616 179.582 103.794 179.787C104.509 180.599 104.628 182.006 104.828 183.024C105.12 184.529 105.873 185.995 107.036 187.008C107.702 187.587 108.465 188.036 109.25 188.42C109.477 188.528 111.756 189.411 111.75 189.47C111.75 189.443 111.761 189.421 111.761 189.4C111.864 188.317 111.068 187.359 109.986 187.257C109.088 187.17 107.859 185.622 107.334 184.962C106.387 183.766 105.651 182.326 105.142 180.691L105.153 180.697Z" fill="#C7B5AF"/>
<path d="M114.008 181.353C114.008 181.353 113.883 181.337 113.58 181.18C111.762 180.233 110.376 178.566 108.882 176.65C108.487 176.141 108.184 175.724 108.157 175.378C108.087 174.295 107.15 173.472 106.068 173.543C105.954 173.548 105.851 173.586 105.749 173.613C106.29 173.472 108.043 177.526 108.384 178.057C109.505 179.81 111.193 181.12 113.115 181.889C113.84 182.181 114.695 182.468 114.982 183.199C115.296 184 114.603 184.709 114.122 185.266C114.398 185.272 114.679 185.228 114.944 185.163C115.302 185.071 115.61 184.887 115.854 184.644C116.33 184.167 116.552 183.464 116.373 182.766C116.103 181.716 115.053 181.077 113.997 181.348L114.008 181.353Z" fill="#C7B5AF"/>
<path d="M119.014 175.659C115.832 174.349 113.169 171.973 111.523 168.964C111.004 168.011 109.807 167.665 108.855 168.185C108.833 168.195 108.822 168.212 108.801 168.222C109.894 168.823 110.5 169.202 111.188 170.328C112.021 171.692 113.001 172.985 114.24 173.997C115.344 174.901 116.622 175.562 117.769 176.411C118.256 176.774 118.749 177.212 118.911 177.797C119.074 178.387 118.754 179.139 118.153 179.226C118.451 179.762 119.415 179.123 119.664 178.874C119.842 178.695 119.988 178.479 120.091 178.23C120.502 177.223 120.026 176.076 119.019 175.665L119.014 175.659Z" fill="#C7B5AF"/>
<path d="M123.962 170.5C121.077 169.152 118.565 167.101 116.687 164.568C116.611 164.465 116.563 164.395 116.536 164.346C116.676 163.361 116.059 162.408 115.074 162.159C114.809 162.094 114.544 162.089 114.295 162.127C114.982 162.019 115.437 163.945 115.529 164.373C115.892 166.083 116.671 166.787 118.046 167.723C119.686 168.838 122.305 169.775 123.014 171.858C123.307 172.708 123.058 173.585 122.435 174.105C123.171 174.381 123.983 174.207 124.519 173.672C124.676 173.515 124.811 173.325 124.909 173.114C125.369 172.129 124.947 170.96 123.962 170.5Z" fill="#C7B5AF"/>
<path d="M146.299 146.798C144.767 145.483 142.938 144.444 140.86 143.713C139.837 143.356 138.716 143.892 138.354 144.914C138.343 144.942 138.343 144.969 138.337 144.99C138.63 144.822 138.987 144.747 139.398 144.839C143.571 145.759 149.39 149.326 148.556 154.256C148.827 154.159 149.076 154.007 149.271 153.807C149.649 153.428 149.877 152.892 149.844 152.308C149.704 149.732 147.49 147.826 146.299 146.798Z" fill="#C7B5AF"/>
<path d="M137.9 147.979C137.185 147.379 136.108 146.464 134.533 146.296C133.841 146.226 133.191 146.523 132.791 147.032C136.855 146.843 145.044 154.036 141.846 158.003C141.575 158.339 141.229 158.512 140.877 158.566C140.974 158.615 141.072 158.658 141.18 158.691C141.9 158.907 142.641 158.691 143.134 158.198C143.356 157.976 143.529 157.695 143.626 157.375C144.021 156.055 143.605 154.918 143.258 154.177C142.046 151.606 140.032 149.776 137.9 147.974L137.9 147.979Z" fill="#C7B5AF"/>
<path d="M129.593 149.941C129.112 149.654 128.56 149.595 128.056 149.735C129.079 149.454 130.773 151.381 131.342 151.96C132.727 153.378 133.918 154.861 134.979 156.506C136.153 158.325 136.938 160.901 134.519 161.865C135.038 162.319 135.78 162.487 136.478 162.233C136.754 162.13 136.998 161.973 137.192 161.778C137.717 161.253 137.923 160.457 137.652 159.716C136.164 155.64 133.306 152.171 129.593 149.941Z" fill="#C7B5AF"/>
<path d="M125.447 155.236C125.041 154.905 123.802 153.909 122.156 154.256C121.599 154.375 121.15 154.727 120.879 155.181C121.079 155.192 121.29 155.246 121.507 155.36C125.642 157.536 129.441 160.107 130.914 164.799C131.309 166.05 130.042 166.737 129.046 166.439C129.593 166.981 130.432 167.17 131.19 166.856C131.433 166.753 131.644 166.607 131.817 166.434C132.364 165.887 132.559 165.043 132.24 164.28C130.757 160.745 128.408 157.617 125.447 155.236Z" fill="#C7B5AF"/>
<path d="M123.571 162.199C123.279 161.972 122.954 161.739 122.613 161.495C121.736 160.867 120.535 160.012 120.35 159.319C120.069 158.269 118.992 157.647 117.947 157.923C117.758 157.977 117.585 158.058 117.422 158.161C118.245 158.616 118.819 159.206 119.485 160.066C120.437 161.295 121.725 162.139 123.024 162.973C124.415 163.866 125.4 164.618 126.272 166.025C126.937 167.097 127.446 168.661 126.629 169.792C127.105 169.879 127.63 169.695 128.009 169.397C128.069 169.349 128.128 169.295 128.182 169.24C128.875 168.548 128.956 167.427 128.334 166.637C126.986 164.932 125.384 163.617 123.571 162.199Z" fill="#C7B5AF"/>
<path d="M107.168 224.248C103.054 220.135 97.723 211.416 93.2848 201.051C92.473 206.55 92.2294 211.767 92.4297 216.406C95.6176 222.327 98.8813 227.085 101.609 229.812C104.315 232.519 109.03 235.734 114.902 238.867C119.546 239.052 124.774 238.792 130.279 237.985C119.947 233.601 111.26 228.346 107.168 224.254L107.168 224.248Z" fill="#EDE9E8"/>
<path d="M92.9189 203.983C92.3128 210.331 95.6739 216.567 101.162 219.765C102.288 220.42 103.441 220.913 104.61 221.281C100.989 216.61 96.8592 209.363 93.2978 201.049C93.222 201.569 93.1517 202.088 93.0867 202.602C93.0651 202.781 93.038 202.965 93.0164 203.144C92.9839 203.425 92.9568 203.701 92.9243 203.977L92.9189 203.983Z" fill="white"/>
<path d="M94.7242 220.428C95.1734 221.175 95.6226 221.9 96.0665 222.593C96.2721 219.026 96.8404 214.951 97.8417 210.545C97.4087 209.739 96.9812 208.911 96.5536 208.061C95.5252 212.564 94.9298 216.764 94.7187 220.423L94.7242 220.428Z" fill="#213E47"/>
<path d="M107.051 234.144C109.827 233.499 113.064 232.498 116.62 231.134C116.144 230.853 115.673 230.571 115.224 230.295C111.743 231.648 108.577 232.644 105.844 233.305C106.228 233.581 106.634 233.862 107.045 234.144L107.051 234.144Z" fill="#213E47"/>
</g>
<defs>
<clipPath id="clip0_1162_9906">
<rect width="256" height="256" fill="white"/>
</clipPath>
</defs>
</svg>
