<svg width="256" height="256" viewBox="0 0 256 256" fill="none" xmlns="http://www.w3.org/2000/svg">
<g clip-path="url(#clip0_3024_5379)">
<mask id="mask0_3024_5379" style="mask-type:luminance" maskUnits="userSpaceOnUse" x="0" y="0" width="256" height="256">
<path d="M256 0H0V256H256V0Z" fill="white"/>
</mask>
<g mask="url(#mask0_3024_5379)">
<path fill-rule="evenodd" clip-rule="evenodd" d="M254.079 152.659H3.37848C2.75848 147.559 2.43848 142.379 2.43848 137.119C2.43848 67.3593 58.9785 10.8193 128.719 10.8193C198.459 10.8193 254.999 67.3593 254.999 137.119C254.999 142.379 254.679 147.559 254.059 152.659H254.079Z" fill="#E4EFFA"/>
<path d="M133.339 152.681C155.519 186.961 214.459 245.641 309.479 246.801C428.259 248.241 409.839 152.681 351.479 152.681H133.339Z" fill="#C3DCBF"/>
<path d="M133.339 152.681C155.519 186.961 214.459 245.641 309.479 246.801C428.259 248.241 409.839 152.681 351.479 152.681H133.339Z" fill="#C3DCBF"/>
<path d="M-134.022 152.681C-111.842 186.961 -52.9024 245.641 42.1176 246.801C160.898 248.241 142.478 152.681 84.1176 152.681H-134.022Z" fill="#DBE7E3"/>
<path d="M19.1792 111.801C31.3992 99.5812 51.1992 99.5812 63.4192 111.801C75.6392 124.021 75.6392 143.821 63.4192 156.041L41.2992 178.161L19.1792 156.041C6.95916 143.801 6.95916 124.001 19.1792 111.801Z" fill="#E13632"/>
<path fill-rule="evenodd" clip-rule="evenodd" d="M29.6392 166.501L41.2992 178.161L63.4192 156.041C75.6392 143.801 75.6392 124.001 63.4192 111.801C60.6392 109.021 57.4792 106.881 54.0992 105.361C62.7192 117.581 61.5592 134.581 50.6392 145.521L29.6392 166.501Z" fill="#AB1F08"/>
<path d="M41.3029 146.699C48.3611 146.699 54.083 140.977 54.083 133.919C54.083 126.86 48.3611 121.139 41.3029 121.139C34.2447 121.139 28.5229 126.86 28.5229 133.919C28.5229 140.977 34.2447 146.699 41.3029 146.699Z" fill="white"/>
<path d="M192.163 146.84C204.383 134.62 224.183 134.62 236.403 146.84C248.623 159.06 248.623 178.86 236.403 191.08L214.283 213.2L192.163 191.08C179.943 178.84 179.943 159.04 192.163 146.84Z" fill="#E13632"/>
<path fill-rule="evenodd" clip-rule="evenodd" d="M202.623 201.54L214.283 213.2L236.403 191.08C248.623 178.84 248.623 159.04 236.403 146.84C233.623 144.06 230.463 141.92 227.083 140.4C235.703 152.62 234.543 169.62 223.623 180.56L202.623 201.54Z" fill="#AB1F08"/>
<path d="M214.28 181.741C221.338 181.741 227.06 176.019 227.06 168.961C227.06 161.903 221.338 156.181 214.28 156.181C207.222 156.181 201.5 161.903 201.5 168.961C201.5 176.019 207.222 181.741 214.28 181.741Z" fill="white"/>
<path d="M47.0229 100.821C47.0229 100.821 64.4029 67.6806 140.303 65.8206C233.003 63.5406 229.163 136.201 229.163 136.201" stroke="#4797A2" stroke-width="3.5" stroke-linejoin="round" stroke-dasharray="7 7"/>
<path d="M43.0229 98.7786C43.0229 98.7786 60.4029 65.6386 136.303 63.7786C229.003 61.4986 225.163 134.159 225.163 134.159" stroke="white" stroke-width="3.5" stroke-linejoin="round" stroke-dasharray="7 7"/>
<path opacity="0.34" d="M169.398 59.6212C171.098 59.6212 172.518 58.1012 172.518 56.2012C172.518 54.3012 171.138 52.7612 169.398 52.7612C167.658 52.7612 166.278 54.2812 166.278 56.2012C166.278 58.1212 167.658 59.6212 169.398 59.6212Z" fill="#E0AA3F"/>
<path d="M131.641 48.2389C141.181 49.7789 113.262 60.9189 112.802 57.4589C112.002 51.1789 106.582 39.6189 102.802 27.8389C101.822 24.7589 105.502 19.0189 106.242 20.5589C114.462 37.2389 126.561 47.4189 131.621 48.2589L131.641 48.2389Z" fill="#E13632"/>
<path d="M110.702 28.4204C112.322 30.9804 114.042 33.3204 115.722 35.3804C114.062 35.9204 112.422 36.5204 110.802 36.9804C109.362 37.4204 107.942 37.8204 106.522 38.2604C105.582 35.7804 104.642 33.2204 103.762 30.6004C106.062 29.8404 108.382 29.0804 110.722 28.4004L110.702 28.4204Z" fill="#E13632"/>
<path d="M103.399 23.4614C102.379 26.4414 104.899 31.6814 107.179 37.0814C108.779 40.8814 113.139 52.2014 116.699 53.0014C120.099 53.7414 123.559 54.1014 127.019 54.2814C120.999 57.0614 113.019 59.3214 112.779 57.4814C111.979 51.2014 106.559 39.6414 102.779 27.8614C102.399 26.6014 102.779 24.9014 103.379 23.4614H103.399Z" fill="#AB1F08"/>
<path d="M206.243 36.5796C215.343 31.5996 231.843 17.7596 240.923 11.2396C245.903 7.65959 244.183 10.1396 243.803 10.8396C243.463 11.4396 214.063 39.2996 194.363 53.4996C187.863 58.1796 202.203 38.8196 206.243 36.5596V36.5796Z" fill="#D30000"/>
<path d="M206.243 36.5793C209.043 35.0393 212.563 32.6793 216.343 29.9193C217.443 30.0393 218.563 29.7793 219.483 29.0593C221.663 27.3593 229.583 20.6793 230.523 20.1593C234.323 18.0592 241.363 11.1592 241.583 10.7792C245.743 7.87925 244.183 10.1592 243.803 10.8392C243.463 11.4392 214.063 39.2993 194.363 53.4993C187.863 58.1793 202.203 38.8193 206.243 36.5593H206.223L206.243 36.5793Z" fill="#AB1F08"/>
<path d="M231.08 44.9391C235.9 52.5191 220.98 61.6191 204.58 64.6591C198.56 65.7791 128.44 71.0791 117.74 68.6791C97.5204 64.1191 100.52 56.4991 102.66 55.8591C114.46 52.2391 195.66 30.6991 203.94 29.5391C217.28 27.6591 226 36.9791 231.08 44.9591V44.9391Z" fill="#E13632"/>
<path d="M231.304 45.2808C236.124 52.8408 221.184 61.9808 204.784 65.0208C198.764 66.1208 128.644 71.4208 117.944 69.0408C111.504 67.6008 107.424 65.8408 104.924 64.1008C99.544 60.3808 113.644 75.1808 201.504 59.9808C206.924 59.0608 220.924 55.1608 226.064 52.4008C233.544 48.3608 231.284 45.3008 231.284 45.3008H231.304V45.2808Z" fill="white"/>
<path d="M115.102 62.9803C110.122 67.1403 99.7217 69.1403 99.9017 70.3003C100.082 71.4603 121.262 66.0803 128.262 64.6803C133.482 63.6603 116.682 61.6603 115.082 62.9803H115.102Z" fill="#AB1F08"/>
<path d="M112.342 66.4398C107.322 67.9598 99.9017 70.3398 99.9017 70.2998C99.7217 69.1398 110.122 67.1798 115.102 62.9798C116.702 61.6598 133.502 63.6198 128.282 64.6598C127.182 64.8598 125.722 65.1998 124.062 65.5598C123.362 65.7398 119.642 64.2198 112.342 66.4398Z" fill="#E13632"/>
<path d="M142.242 76.8788C142.722 79.9988 141.242 82.8988 138.902 83.3588C136.582 83.8188 134.302 81.6588 133.802 78.5388C133.322 75.4188 134.802 72.5188 137.162 72.0588C139.482 71.6188 141.762 73.7588 142.242 76.8788Z" fill="#EDEAE6"/>
<path d="M162.222 84.7193C154.242 86.2793 146.942 82.9793 138.902 83.3593C136.242 83.4993 134.482 71.6993 137.142 72.0593C143.322 72.9393 157.362 70.8593 159.982 70.3193L162.222 84.7393V84.7193Z" fill="#EDEAE6"/>
<path d="M136.498 72.2793C136.678 72.1193 136.878 72.0393 137.138 72.0593C137.758 71.9193 138.378 71.9993 138.958 72.2193C145.718 72.5393 157.578 70.7793 159.998 70.3193L162.238 84.7393C154.258 86.2993 146.958 82.9993 138.918 83.3793C136.598 83.8593 134.318 81.6793 133.818 78.5593C133.378 75.7593 134.578 73.0993 136.518 72.2793H136.498Z" fill="#EDEAE6"/>
<path d="M136.498 72.2793C136.678 72.1193 136.878 72.0393 137.138 72.0593C137.758 71.9193 138.378 71.9993 138.958 72.2193C145.718 72.5393 157.578 70.7793 159.998 70.3193L162.238 84.7393C154.258 86.2993 146.958 82.9993 138.918 83.3793C136.598 83.8593 134.318 81.6793 133.818 78.5593C133.378 75.7593 134.578 73.0993 136.518 72.2793H136.498Z" fill="#EDEAE6"/>
<path d="M136.602 72.6988C136.782 72.5588 136.982 72.4788 137.242 72.4988C137.862 72.3588 138.482 72.4388 139.062 72.6388C145.822 72.9788 157.682 71.1988 160.102 70.7388L162.342 85.1588C154.362 86.7188 147.062 83.4188 139.022 83.7988C136.702 84.2588 134.422 82.0988 133.902 78.9788C133.462 76.1788 134.662 73.5188 136.602 72.6988Z" fill="#C7DDF1"/>
<path d="M136.622 72.7815C136.802 72.6215 137.002 72.5415 137.262 72.5615C137.882 72.4415 138.502 72.5015 139.082 72.7215C144.962 73.0415 154.702 71.7215 158.722 71.0615C158.582 71.2815 158.522 71.5015 158.502 71.7415C158.202 71.8015 157.902 71.9415 157.642 72.2815C155.022 75.5415 150.922 77.0415 147.482 79.0015C144.542 80.6615 141.582 82.2615 138.622 83.9015C136.422 84.0815 134.362 82.0015 133.902 79.0415C133.462 76.2815 134.662 73.6415 136.602 72.8015H136.622V72.7815Z" fill="#50769A"/>
<path d="M166.617 76.9812C167.237 80.9612 165.337 84.6812 162.357 85.2412C159.397 85.8412 156.477 83.0812 155.857 79.0812C155.237 75.1012 157.137 71.4212 160.117 70.8212C163.077 70.2612 165.997 73.0212 166.617 76.9812Z" fill="white"/>
<path d="M165.759 77.1596C166.279 80.4996 164.659 83.6396 162.179 84.1196C159.679 84.5996 157.239 82.2996 156.699 78.9596C156.179 75.5996 157.799 72.4996 160.279 71.9796C162.759 71.4596 165.239 73.7796 165.759 77.1596Z" fill="#6E878E"/>
<path d="M163.183 77.6399C163.783 81.4999 161.263 84.4199 159.923 83.8199C158.323 83.1199 157.043 81.2399 156.703 78.9199C156.263 76.1599 157.503 73.7199 158.143 73.2199C159.123 72.3999 162.483 73.1199 163.183 77.6199V77.6399Z" fill="#213E47"/>
<path d="M143.303 67.7391C129.043 76.8591 97.5033 89.5991 81.4233 97.4791C72.6433 101.759 77.1433 101.279 78.3433 101.259C79.3633 101.259 139.523 80.9791 174.403 63.9991C185.943 58.3591 149.623 63.7191 143.303 67.7391Z" fill="#EDEAE6"/>
<path d="M143.303 67.7391C129.043 76.8591 97.5033 89.5991 81.4233 97.4791C72.6433 101.759 77.1433 101.279 78.3433 101.259C79.3633 101.259 139.523 80.9791 174.403 63.9991C185.943 58.3591 149.623 63.7191 143.303 67.7391Z" fill="#E13632"/>
<path d="M164.843 66.6204C166.323 65.8204 171.263 60.3804 140.563 69.3604C141.483 68.8204 142.363 68.2804 143.183 67.7604C149.503 63.7204 185.823 58.3804 174.303 64.0004C145.203 78.1804 98.5027 94.6004 83.2227 99.6804C119.343 86.3204 158.683 69.8804 164.843 66.6204Z" fill="#AB1F08"/>
<path d="M231.122 44.9588C231.122 44.9588 225.882 40.9188 215.782 35.1588C210.782 32.2988 209.202 30.1588 164.722 40.6588C126.422 49.6988 100.802 56.4188 102.922 55.7788C114.562 52.1788 195.502 29.4988 203.702 28.3588C216.882 26.4988 228.582 38.3788 231.122 44.9388V44.9588Z" fill="#AB1F08"/>
<path d="M213.181 43.8395C216.881 42.8195 220.901 40.7595 222.081 39.4595C223.241 38.1795 223.381 37.3595 223.481 35.1795C223.481 34.5795 220.541 32.5595 220.361 32.8395C219.181 34.8595 218.061 36.1595 218.061 36.1595C218.061 36.1595 213.781 40.0595 209.461 42.2595C206.341 43.8595 210.001 44.6995 213.201 43.8395H213.181Z" fill="#F2F9FF"/>
<path d="M184.56 52.6389C184.68 53.6189 184.26 54.4989 183.62 54.5989C182.98 54.6989 182.36 53.9789 182.22 52.9989C182.1 52.0189 182.52 51.1389 183.16 51.0389C183.82 50.9589 184.44 51.6589 184.56 52.6389Z" fill="#F2F9FF"/>
<path d="M180.06 53.3598C180.18 54.3398 179.76 55.2198 179.12 55.3198C178.48 55.4198 177.86 54.6998 177.72 53.7198C177.6 52.7398 178.02 51.8598 178.66 51.7598C179.3 51.6598 179.92 52.3798 180.06 53.3598Z" fill="#F2F9FF"/>
<path d="M175.522 54.099C175.642 55.079 175.222 55.959 174.582 56.039C173.942 56.139 173.322 55.419 173.182 54.439C173.062 53.459 173.482 52.579 174.122 52.479C174.762 52.379 175.382 53.099 175.522 54.079V54.099Z" fill="#F2F9FF"/>
<path d="M171.083 54.7797C171.203 55.7597 170.783 56.6397 170.143 56.7197C169.503 56.8197 168.883 56.0997 168.743 55.1197C168.623 54.1397 169.043 53.2597 169.683 53.1597C170.323 53.0597 170.943 53.7797 171.083 54.7597V54.7797Z" fill="#F2F9FF"/>
<path d="M167.122 55.3993C167.242 56.3793 166.822 57.2393 166.182 57.3393C165.542 57.4393 164.922 56.7193 164.782 55.7393C164.662 54.7593 165.082 53.8793 165.722 53.7793C166.362 53.6793 167.002 54.3993 167.122 55.3793V55.3993Z" fill="#F2F9FF"/>
<path d="M162.622 56.121C162.742 57.101 162.322 57.981 161.682 58.081C161.042 58.181 160.422 57.461 160.282 56.481C160.162 55.501 160.582 54.621 161.222 54.521C161.882 54.421 162.502 55.141 162.622 56.121Z" fill="#F2F9FF"/>
<path d="M158.083 56.8196C158.203 57.7996 157.783 58.6796 157.143 58.7796C156.503 58.8796 155.883 58.1596 155.743 57.1796C155.623 56.1996 156.043 55.3196 156.683 55.2196C157.343 55.1396 157.963 55.8396 158.083 56.8196Z" fill="#F2F9FF"/>
<path d="M153.622 57.54C153.742 58.52 153.322 59.4 152.682 59.5C152.042 59.6 151.422 58.88 151.282 57.9C151.162 56.92 151.582 56.04 152.222 55.96C152.882 55.86 153.502 56.58 153.622 57.56V57.54Z" fill="#F2F9FF"/>
<path d="M149.4 58.2011C149.52 59.1811 149.1 60.0611 148.46 60.1611C147.82 60.2611 147.2 59.5411 147.06 58.5611C146.94 57.5811 147.36 56.7011 148 56.6211C148.66 56.5211 149.28 57.2411 149.4 58.2211V58.2011Z" fill="#F2F9FF"/>
<path d="M144.9 58.9006C145.02 59.8806 144.6 60.7606 143.96 60.8406C143.32 60.9406 142.7 60.2206 142.56 59.2406C142.44 58.2606 142.86 57.3806 143.5 57.2806C144.14 57.2006 144.76 57.9006 144.9 58.8806V58.9006Z" fill="#F2F9FF"/>
<path d="M140.36 59.621C140.48 60.601 140.06 61.481 139.42 61.581C138.78 61.681 138.16 60.961 138.02 59.981C137.9 59.001 138.32 58.121 138.96 58.021C139.6 57.921 140.22 58.641 140.36 59.621Z" fill="#F2F9FF"/>
</g>
</g>
<defs>
<clipPath id="clip0_3024_5379">
<rect width="256" height="256" fill="white"/>
</clipPath>
</defs>
</svg>
